PathFileType	4	(X/Y/Z)	C:\Users\WrightLab\Desktop\Jo\P1.2Trial5.trc
DataRate	CameraRate	NumFrames	NumMarkers	Units	OrigDataRate	OrigDataStartFrame	OrigNumFrames
100.00	100.00	       109	19	mm	100.00	1	       872
Frame#	Time	Headset_Front			Headset_Back			Headset_Left			Headset_Right			Left_Shoulder			Right_Shoulder			Sternum			C7			Left Elbow			Right Elbow			Left Wrist			Right Wrist			Left ASIS			Right ASIS			S2			Left Knee			Right Knee			Left Ankle			Right Ankle			
		X1	Y1	Z1	X2	Y2	Z2	X3	Y3	Z3	X4	Y4	Z4	X5	Y5	Z5	X6	Y6	Z6	X7	Y7	Z7	X8	Y8	Z8	X9	Y9	Z9	X10	Y10	Z10	X11	Y11	Z11	X12	Y12	Z12	X13	Y13	Z13	X14	Y14	Z14	X15	Y15	Z15	X16	Y16	Z16	X17	Y17	Z17	X18	Y18	Z18	X19	Y19	Z19	

1	0.000																																		-103.32826	1014.35187	1962.00793																						
2	0.010																																		-103.65324	1009.79883	1963.42053																						
3	0.020																																		-104.19524	1005.25330	1964.21729																						
4	0.030																																		-105.02905	1000.46826	1965.90881																						
5	0.040																																		-105.34240	995.19360	1967.79004																						
6	0.050																																		-105.82925	989.44080	1970.39746																						
7	0.060																																		-106.30632	983.38367	1973.11841																						
8	0.070																																		-107.08910	977.24286	1975.02637																						
9	0.080																																		-107.96388	970.71252	1978.39941																						
10	0.090																																		-109.25999	963.88220	1980.88818																						
11	0.100																																		-110.25928	957.30750	1983.59314																						
12	0.110																																		-111.53330	950.36322	1986.37024																						
13	0.120																																		-112.70405	942.60791	1991.40857																						
14	0.130																																		-114.15971	935.60870	1994.95544																						
15	0.140																																		-116.00871	928.76282	1998.95349																						
16	0.150																																		-118.21505	921.65576	2002.07678																						
17	0.160																																		-120.50368	914.72296	2004.92224																						
18	0.170																																		-121.94145	908.25342	2008.09546																						
19	0.180																																		-124.15894	902.82037	2012.07703																						
20	0.190																																		-126.56702	896.45636	2014.42322																						
21	0.200																																		-130.60893	891.76514	2016.38696																						
22	0.210																																		-132.47525	887.07635	2018.31531																						
23	0.220																																		-135.02361	883.56750	2020.17139																						
24	0.230																																		-137.32407	878.89484	2019.62195																						
25	0.240																																		-138.23134	876.03589	2020.19629																						
26	0.250																																		-140.55956	873.77081	2020.28552																						
27	0.260																																		-142.53075	872.44360	2019.42358																						
28	0.270																																		-142.48398	871.50641	2020.04834																						
29	0.280																																		-143.21530	869.26508	2016.33582																						
30	0.290																																		-144.24396	869.72809	2014.75952																						
31	0.300																																		-144.74971	869.23004	2010.82788																						
32	0.310																																		-144.92252	869.77808	2009.08362																						
33	0.320																																		-144.91167	868.77789	2005.23999																						
34	0.330																																		-145.18854	868.47119	2000.23975																						
35	0.340																																		-145.21355	869.65558	1995.36597																						
36	0.350																																		-145.39688	871.04767	1990.34961																						
37	0.360																																		-146.29871	870.96637	1983.86194																						
38	0.370																																		-147.33502	872.33533	1978.15564																						
39	0.380																																		-149.06657	872.88837	1970.91589																						
40	0.390																																		-149.95985	873.23663	1965.29077																						
41	0.400																																		-151.52451	873.96088	1957.95630																						
42	0.410																																		-153.06812	874.50757	1951.77319																						
43	0.420																																		-154.70158	874.82684	1945.41785																						
44	0.430																																		-156.90175	875.47186	1936.68787																						
45	0.440																																		-159.43517	875.66595	1930.18079																						
46	0.450																																		-161.58560	875.16486	1923.44043																						
47	0.460																																		-164.30859	875.24304	1915.48560																						
48	0.470																																		-167.67194	875.08722	1907.04370																						
49	0.480																																		-170.44487	874.43542	1899.35059																						
50	0.490																																		-173.12604	874.32593	1892.86499																						
51	0.500																																		-177.22125	873.79169	1883.64404																						
52	0.510																																		-179.82379	872.94226	1877.21667																						
53	0.520																																		-183.60075	872.13367	1869.24561																						
54	0.530																																		-187.12875	871.72400	1860.55518																						
55	0.540																																		-190.79662	871.31885	1853.05786																						
56	0.550																																		-194.83347	870.80115	1845.37341																						
57	0.560																																		-199.02388	870.69623	1837.64185																						
58	0.570																																		-202.84093	870.21973	1829.35742																						
59	0.580																																		-207.47588	869.21478	1821.22961																						
60	0.590																																		-212.08376	869.09790	1816.31543																						
61	0.600																																		-216.88591	868.60052	1808.45911																						
62	0.610																																		-221.69745	868.33771	1801.66235																						
63	0.620																																		-227.23825	868.47015	1794.94507																						
64	0.630																																		-232.65573	867.81055	1788.20313																						
65	0.640																																		-238.22688	867.39105	1781.16687																						
66	0.650																																		-243.30469	867.61780	1776.74585																						
67	0.660																																		-249.12424	867.74487	1771.60522																						
68	0.670																																		-254.59540	867.06006	1765.02478																						
69	0.680																																		-260.51065	867.13385	1758.05200																						
70	0.690																																		-266.18536	867.28259	1753.71289																						
71	0.700																																		-271.80753	867.20569	1747.65405																						
72	0.710																																		-277.84906	867.35773	1741.69177																						
73	0.720																																		-283.28409	866.85474	1736.80444																						
74	0.730																																		-289.11343	867.69720	1728.90662																						
75	0.740																																		-294.43076	867.48163	1723.28699																						
76	0.750																																		-299.26627	867.57715	1716.61121																						
77	0.760																																		-304.17053	867.19507	1710.12708																						
78	0.770																																		-309.39273	865.24896	1703.28369													-359.19583	462.96881	1957.49707							
79	0.780																																		-313.36261	866.36298	1696.02136													-359.60721	463.68292	1944.18298							
80	0.790																																		-317.50485	865.95612	1690.29297													-360.32581	465.82373	1929.29224							
81	0.800																																		-321.26328	865.08301	1684.09265													-362.70770	467.05191	1916.55090							
82	0.810																																		-325.09805	865.13824	1677.38379													-365.92227	470.18649	1903.09180							
83	0.820																																		-328.72794	863.62653	1670.25452													-367.77103	473.13770	1887.40540							
84	0.830																																		-331.41309	863.62982	1665.38660													-371.63242	474.60904	1876.38806							
85	0.840																																		-335.90326	861.85864	1657.79675													-376.03693	477.30905	1865.77380							
86	0.850																																		-337.51422	862.57404	1650.09424													-380.78082	480.31006	1854.94080							
87	0.860																																		-340.11813	862.14032	1645.69299													-385.76993	483.39581	1847.13879							
88	0.870																																		-341.93338	860.84668	1639.08191													-390.83231	485.89447	1838.15247							
89	0.880																																		-343.98322	860.44531	1633.36047													-396.02747	488.07950	1828.52722							
90	0.890																																		-345.70560	859.53448	1627.28528													-401.75241	489.93744	1819.63062							
91	0.900																																		-347.80484	859.37146	1621.39502													-407.50287	491.96912	1810.02197							
92	0.910																																		-349.08777	858.74475	1615.81421													-412.94989	493.11417	1801.29614							
93	0.920																																		-350.71036	858.42731	1609.26038													-418.70648	494.83084	1794.27649							
94	0.930																																		-352.01123	857.90454	1604.69568													-424.53159	496.16953	1788.05872							
95	0.940																																		-353.37317	857.52484	1598.37488													-431.00107	498.08310	1779.51379							
96	0.950																																		-354.80411	856.77924	1592.65173													-436.06970	498.87485	1775.53113							
97	0.960																																		-356.29056	856.96082	1587.03296													-442.39417	500.28534	1767.67017							
98	0.970																																		-357.64310	855.47144	1580.56750													-447.92801	501.29541	1761.66345							
99	0.980																																		-358.45172	855.12823	1575.61572													-453.56076	502.23282	1755.75781							
100	0.990																																		-359.43225	854.60699	1570.52539													-459.59067	502.94177	1748.75928							
101	1.000																																		-359.83783	853.83057	1564.96021													-464.62097	503.68695	1745.05957							
102	1.010																																		-360.95642	853.08063	1558.86609													-469.65088	503.52631	1742.48901							
103	1.020																																		-361.81940	852.11438	1552.60083													-476.72818	501.63199	1744.32971							
104	1.030																																		-361.89828	851.42261	1547.49292													-481.13651	501.99460	1737.49207							
105	1.040																																		-362.06876	850.01331	1542.12732													-485.20468	500.12045	1735.63013							
106	1.050																																		-362.40649	848.52472	1537.09131													-489.26010	500.03009	1733.57117							
107	1.060																																		-362.22586	847.67694	1530.66418													-492.27045	500.53812	1727.30408							
108	1.070																																		-361.94144	846.48151	1524.22974													-495.33148	499.56348	1726.70593							
109	1.080																																		-361.81226	844.93610	1519.73975													-497.55469	497.24603	1723.77625							
